<mxfile host="app.diagrams.net" agent="Mozilla/5.0 (Windows NT 10.0; Win64; x64) AppleWebKit/537.36 (KHTML, like Gecko) Chrome/134.0.0.0 Safari/537.36 Edg/134.0.0.0" version="26.0.16">
  <diagram name="Page-1" id="-5JVrxAo1lpXdol_lXFJ">
    <mxGraphModel dx="2151" dy="904" grid="1" gridSize="10" guides="1" tooltips="1" connect="1" arrows="1" fold="1" page="1" pageScale="1" pageWidth="850" pageHeight="1100" math="0" shadow="0">
      <root>
        <mxCell id="0" />
        <mxCell id="1" parent="0" />
        <mxCell id="63pfL0FRDXdgF5dSK9DF-83" style="edgeStyle=orthogonalEdgeStyle;rounded=0;orthogonalLoop=1;jettySize=auto;html=1;entryX=0.5;entryY=0;entryDx=0;entryDy=0;" edge="1" parent="1" source="63pfL0FRDXdgF5dSK9DF-1" target="63pfL0FRDXdgF5dSK9DF-54">
          <mxGeometry relative="1" as="geometry" />
        </mxCell>
        <mxCell id="63pfL0FRDXdgF5dSK9DF-1" value="1" style="whiteSpace=wrap;html=1;aspect=fixed;" vertex="1" parent="1">
          <mxGeometry x="20" y="140" width="40" height="40" as="geometry" />
        </mxCell>
        <mxCell id="63pfL0FRDXdgF5dSK9DF-84" style="edgeStyle=orthogonalEdgeStyle;rounded=0;orthogonalLoop=1;jettySize=auto;html=1;entryX=0.5;entryY=0;entryDx=0;entryDy=0;" edge="1" parent="1" source="63pfL0FRDXdgF5dSK9DF-2" target="63pfL0FRDXdgF5dSK9DF-55">
          <mxGeometry relative="1" as="geometry" />
        </mxCell>
        <mxCell id="63pfL0FRDXdgF5dSK9DF-2" value="2" style="whiteSpace=wrap;html=1;aspect=fixed;" vertex="1" parent="1">
          <mxGeometry x="70" y="140" width="40" height="40" as="geometry" />
        </mxCell>
        <mxCell id="63pfL0FRDXdgF5dSK9DF-85" style="edgeStyle=orthogonalEdgeStyle;rounded=0;orthogonalLoop=1;jettySize=auto;html=1;entryX=0.5;entryY=0;entryDx=0;entryDy=0;" edge="1" parent="1" source="63pfL0FRDXdgF5dSK9DF-3" target="63pfL0FRDXdgF5dSK9DF-56">
          <mxGeometry relative="1" as="geometry" />
        </mxCell>
        <mxCell id="63pfL0FRDXdgF5dSK9DF-3" value="2" style="whiteSpace=wrap;html=1;aspect=fixed;" vertex="1" parent="1">
          <mxGeometry x="120" y="140" width="40" height="40" as="geometry" />
        </mxCell>
        <mxCell id="63pfL0FRDXdgF5dSK9DF-87" style="edgeStyle=orthogonalEdgeStyle;rounded=0;orthogonalLoop=1;jettySize=auto;html=1;entryX=0.5;entryY=0;entryDx=0;entryDy=0;" edge="1" parent="1" source="63pfL0FRDXdgF5dSK9DF-4" target="63pfL0FRDXdgF5dSK9DF-57">
          <mxGeometry relative="1" as="geometry" />
        </mxCell>
        <mxCell id="63pfL0FRDXdgF5dSK9DF-4" value="4" style="whiteSpace=wrap;html=1;aspect=fixed;" vertex="1" parent="1">
          <mxGeometry x="170" y="140" width="40" height="40" as="geometry" />
        </mxCell>
        <mxCell id="63pfL0FRDXdgF5dSK9DF-88" style="edgeStyle=orthogonalEdgeStyle;rounded=0;orthogonalLoop=1;jettySize=auto;html=1;entryX=0.5;entryY=0;entryDx=0;entryDy=0;" edge="1" parent="1" source="63pfL0FRDXdgF5dSK9DF-5" target="63pfL0FRDXdgF5dSK9DF-58">
          <mxGeometry relative="1" as="geometry" />
        </mxCell>
        <mxCell id="63pfL0FRDXdgF5dSK9DF-5" value="5" style="whiteSpace=wrap;html=1;aspect=fixed;" vertex="1" parent="1">
          <mxGeometry x="220" y="140" width="40" height="40" as="geometry" />
        </mxCell>
        <mxCell id="63pfL0FRDXdgF5dSK9DF-6" value="6" style="whiteSpace=wrap;html=1;aspect=fixed;" vertex="1" parent="1">
          <mxGeometry x="270" y="140" width="40" height="40" as="geometry" />
        </mxCell>
        <mxCell id="63pfL0FRDXdgF5dSK9DF-90" style="edgeStyle=orthogonalEdgeStyle;rounded=0;orthogonalLoop=1;jettySize=auto;html=1;entryX=0.5;entryY=0;entryDx=0;entryDy=0;" edge="1" parent="1" source="63pfL0FRDXdgF5dSK9DF-13" target="63pfL0FRDXdgF5dSK9DF-60">
          <mxGeometry relative="1" as="geometry" />
        </mxCell>
        <mxCell id="63pfL0FRDXdgF5dSK9DF-13" value="7" style="whiteSpace=wrap;html=1;aspect=fixed;" vertex="1" parent="1">
          <mxGeometry x="320" y="140" width="40" height="40" as="geometry" />
        </mxCell>
        <mxCell id="63pfL0FRDXdgF5dSK9DF-91" style="edgeStyle=orthogonalEdgeStyle;rounded=0;orthogonalLoop=1;jettySize=auto;html=1;entryX=0.5;entryY=0;entryDx=0;entryDy=0;" edge="1" parent="1" source="63pfL0FRDXdgF5dSK9DF-14" target="63pfL0FRDXdgF5dSK9DF-61">
          <mxGeometry relative="1" as="geometry" />
        </mxCell>
        <mxCell id="63pfL0FRDXdgF5dSK9DF-14" value="8" style="whiteSpace=wrap;html=1;aspect=fixed;" vertex="1" parent="1">
          <mxGeometry x="370" y="140" width="40" height="40" as="geometry" />
        </mxCell>
        <mxCell id="63pfL0FRDXdgF5dSK9DF-92" style="edgeStyle=orthogonalEdgeStyle;rounded=0;orthogonalLoop=1;jettySize=auto;html=1;entryX=0.5;entryY=0;entryDx=0;entryDy=0;" edge="1" parent="1" source="63pfL0FRDXdgF5dSK9DF-15" target="63pfL0FRDXdgF5dSK9DF-62">
          <mxGeometry relative="1" as="geometry" />
        </mxCell>
        <mxCell id="63pfL0FRDXdgF5dSK9DF-15" value="9" style="whiteSpace=wrap;html=1;aspect=fixed;" vertex="1" parent="1">
          <mxGeometry x="420" y="140" width="40" height="40" as="geometry" />
        </mxCell>
        <mxCell id="63pfL0FRDXdgF5dSK9DF-93" style="edgeStyle=orthogonalEdgeStyle;rounded=0;orthogonalLoop=1;jettySize=auto;html=1;entryX=0.5;entryY=0;entryDx=0;entryDy=0;" edge="1" parent="1" source="63pfL0FRDXdgF5dSK9DF-16" target="63pfL0FRDXdgF5dSK9DF-63">
          <mxGeometry relative="1" as="geometry" />
        </mxCell>
        <mxCell id="63pfL0FRDXdgF5dSK9DF-16" value="10" style="whiteSpace=wrap;html=1;aspect=fixed;" vertex="1" parent="1">
          <mxGeometry x="470" y="140" width="40" height="40" as="geometry" />
        </mxCell>
        <mxCell id="63pfL0FRDXdgF5dSK9DF-94" style="edgeStyle=orthogonalEdgeStyle;rounded=0;orthogonalLoop=1;jettySize=auto;html=1;entryX=0.5;entryY=0;entryDx=0;entryDy=0;" edge="1" parent="1" source="63pfL0FRDXdgF5dSK9DF-17" target="63pfL0FRDXdgF5dSK9DF-64">
          <mxGeometry relative="1" as="geometry" />
        </mxCell>
        <mxCell id="63pfL0FRDXdgF5dSK9DF-17" value="11" style="whiteSpace=wrap;html=1;aspect=fixed;" vertex="1" parent="1">
          <mxGeometry x="520" y="140" width="40" height="40" as="geometry" />
        </mxCell>
        <mxCell id="63pfL0FRDXdgF5dSK9DF-95" style="edgeStyle=orthogonalEdgeStyle;rounded=0;orthogonalLoop=1;jettySize=auto;html=1;entryX=0.5;entryY=0;entryDx=0;entryDy=0;" edge="1" parent="1" source="63pfL0FRDXdgF5dSK9DF-18" target="63pfL0FRDXdgF5dSK9DF-65">
          <mxGeometry relative="1" as="geometry" />
        </mxCell>
        <mxCell id="63pfL0FRDXdgF5dSK9DF-18" value="12" style="whiteSpace=wrap;html=1;aspect=fixed;" vertex="1" parent="1">
          <mxGeometry x="570" y="140" width="40" height="40" as="geometry" />
        </mxCell>
        <mxCell id="63pfL0FRDXdgF5dSK9DF-96" style="edgeStyle=orthogonalEdgeStyle;rounded=0;orthogonalLoop=1;jettySize=auto;html=1;entryX=0.5;entryY=0;entryDx=0;entryDy=0;" edge="1" parent="1" source="63pfL0FRDXdgF5dSK9DF-19" target="63pfL0FRDXdgF5dSK9DF-66">
          <mxGeometry relative="1" as="geometry" />
        </mxCell>
        <mxCell id="63pfL0FRDXdgF5dSK9DF-19" value="13" style="whiteSpace=wrap;html=1;aspect=fixed;" vertex="1" parent="1">
          <mxGeometry x="620" y="140" width="40" height="40" as="geometry" />
        </mxCell>
        <mxCell id="63pfL0FRDXdgF5dSK9DF-97" style="edgeStyle=orthogonalEdgeStyle;rounded=0;orthogonalLoop=1;jettySize=auto;html=1;entryX=0.5;entryY=0;entryDx=0;entryDy=0;" edge="1" parent="1" source="63pfL0FRDXdgF5dSK9DF-20" target="63pfL0FRDXdgF5dSK9DF-67">
          <mxGeometry relative="1" as="geometry" />
        </mxCell>
        <mxCell id="63pfL0FRDXdgF5dSK9DF-20" value="14" style="whiteSpace=wrap;html=1;aspect=fixed;" vertex="1" parent="1">
          <mxGeometry x="670" y="140" width="40" height="40" as="geometry" />
        </mxCell>
        <mxCell id="63pfL0FRDXdgF5dSK9DF-100" style="edgeStyle=orthogonalEdgeStyle;rounded=0;orthogonalLoop=1;jettySize=auto;html=1;entryX=0.5;entryY=0;entryDx=0;entryDy=0;" edge="1" parent="1" source="63pfL0FRDXdgF5dSK9DF-21" target="63pfL0FRDXdgF5dSK9DF-68">
          <mxGeometry relative="1" as="geometry" />
        </mxCell>
        <mxCell id="63pfL0FRDXdgF5dSK9DF-21" value="15" style="whiteSpace=wrap;html=1;aspect=fixed;" vertex="1" parent="1">
          <mxGeometry x="720" y="140" width="40" height="40" as="geometry" />
        </mxCell>
        <mxCell id="63pfL0FRDXdgF5dSK9DF-101" style="edgeStyle=orthogonalEdgeStyle;rounded=0;orthogonalLoop=1;jettySize=auto;html=1;entryX=0.5;entryY=0;entryDx=0;entryDy=0;" edge="1" parent="1" source="63pfL0FRDXdgF5dSK9DF-22" target="63pfL0FRDXdgF5dSK9DF-69">
          <mxGeometry relative="1" as="geometry" />
        </mxCell>
        <mxCell id="63pfL0FRDXdgF5dSK9DF-22" value="16" style="whiteSpace=wrap;html=1;aspect=fixed;" vertex="1" parent="1">
          <mxGeometry x="770" y="140" width="40" height="40" as="geometry" />
        </mxCell>
        <mxCell id="63pfL0FRDXdgF5dSK9DF-102" style="edgeStyle=orthogonalEdgeStyle;rounded=0;orthogonalLoop=1;jettySize=auto;html=1;entryX=0.5;entryY=0;entryDx=0;entryDy=0;" edge="1" parent="1" source="63pfL0FRDXdgF5dSK9DF-23" target="63pfL0FRDXdgF5dSK9DF-70">
          <mxGeometry relative="1" as="geometry" />
        </mxCell>
        <mxCell id="63pfL0FRDXdgF5dSK9DF-23" value="17" style="whiteSpace=wrap;html=1;aspect=fixed;" vertex="1" parent="1">
          <mxGeometry x="820" y="140" width="40" height="40" as="geometry" />
        </mxCell>
        <mxCell id="63pfL0FRDXdgF5dSK9DF-103" style="edgeStyle=orthogonalEdgeStyle;rounded=0;orthogonalLoop=1;jettySize=auto;html=1;entryX=0.5;entryY=0;entryDx=0;entryDy=0;" edge="1" parent="1" source="63pfL0FRDXdgF5dSK9DF-24" target="63pfL0FRDXdgF5dSK9DF-71">
          <mxGeometry relative="1" as="geometry" />
        </mxCell>
        <mxCell id="63pfL0FRDXdgF5dSK9DF-24" value="18" style="whiteSpace=wrap;html=1;aspect=fixed;" vertex="1" parent="1">
          <mxGeometry x="870" y="140" width="40" height="40" as="geometry" />
        </mxCell>
        <mxCell id="63pfL0FRDXdgF5dSK9DF-104" style="edgeStyle=orthogonalEdgeStyle;rounded=0;orthogonalLoop=1;jettySize=auto;html=1;entryX=0.5;entryY=0;entryDx=0;entryDy=0;" edge="1" parent="1" source="63pfL0FRDXdgF5dSK9DF-25" target="63pfL0FRDXdgF5dSK9DF-72">
          <mxGeometry relative="1" as="geometry" />
        </mxCell>
        <mxCell id="63pfL0FRDXdgF5dSK9DF-25" value="19" style="whiteSpace=wrap;html=1;aspect=fixed;" vertex="1" parent="1">
          <mxGeometry x="920" y="140" width="40" height="40" as="geometry" />
        </mxCell>
        <mxCell id="63pfL0FRDXdgF5dSK9DF-105" style="edgeStyle=orthogonalEdgeStyle;rounded=0;orthogonalLoop=1;jettySize=auto;html=1;entryX=0.5;entryY=0;entryDx=0;entryDy=0;" edge="1" parent="1" source="63pfL0FRDXdgF5dSK9DF-26" target="63pfL0FRDXdgF5dSK9DF-73">
          <mxGeometry relative="1" as="geometry" />
        </mxCell>
        <mxCell id="63pfL0FRDXdgF5dSK9DF-26" value="20" style="whiteSpace=wrap;html=1;aspect=fixed;" vertex="1" parent="1">
          <mxGeometry x="970" y="140" width="40" height="40" as="geometry" />
        </mxCell>
        <mxCell id="63pfL0FRDXdgF5dSK9DF-106" style="edgeStyle=orthogonalEdgeStyle;rounded=0;orthogonalLoop=1;jettySize=auto;html=1;entryX=0.5;entryY=0;entryDx=0;entryDy=0;" edge="1" parent="1" source="63pfL0FRDXdgF5dSK9DF-27" target="63pfL0FRDXdgF5dSK9DF-74">
          <mxGeometry relative="1" as="geometry" />
        </mxCell>
        <mxCell id="63pfL0FRDXdgF5dSK9DF-27" value="21" style="whiteSpace=wrap;html=1;aspect=fixed;" vertex="1" parent="1">
          <mxGeometry x="1020" y="140" width="40" height="40" as="geometry" />
        </mxCell>
        <mxCell id="63pfL0FRDXdgF5dSK9DF-28" value="22" style="whiteSpace=wrap;html=1;aspect=fixed;" vertex="1" parent="1">
          <mxGeometry x="1070" y="140" width="40" height="40" as="geometry" />
        </mxCell>
        <mxCell id="63pfL0FRDXdgF5dSK9DF-78" value="" style="edgeStyle=orthogonalEdgeStyle;rounded=0;orthogonalLoop=1;jettySize=auto;html=1;" edge="1" parent="1" source="63pfL0FRDXdgF5dSK9DF-30" target="63pfL0FRDXdgF5dSK9DF-76">
          <mxGeometry relative="1" as="geometry" />
        </mxCell>
        <mxCell id="63pfL0FRDXdgF5dSK9DF-30" value="0" style="whiteSpace=wrap;html=1;aspect=fixed;" vertex="1" parent="1">
          <mxGeometry x="-30" y="140" width="40" height="40" as="geometry" />
        </mxCell>
        <mxCell id="63pfL0FRDXdgF5dSK9DF-54" value="2" style="whiteSpace=wrap;html=1;aspect=fixed;" vertex="1" parent="1">
          <mxGeometry x="40" y="210" width="40" height="40" as="geometry" />
        </mxCell>
        <mxCell id="63pfL0FRDXdgF5dSK9DF-55" value="3" style="whiteSpace=wrap;html=1;aspect=fixed;" vertex="1" parent="1">
          <mxGeometry x="90" y="210" width="40" height="40" as="geometry" />
        </mxCell>
        <mxCell id="63pfL0FRDXdgF5dSK9DF-56" value="4" style="whiteSpace=wrap;html=1;aspect=fixed;" vertex="1" parent="1">
          <mxGeometry x="140" y="210" width="40" height="40" as="geometry" />
        </mxCell>
        <mxCell id="63pfL0FRDXdgF5dSK9DF-57" value="5" style="whiteSpace=wrap;html=1;aspect=fixed;" vertex="1" parent="1">
          <mxGeometry x="190" y="210" width="40" height="40" as="geometry" />
        </mxCell>
        <mxCell id="63pfL0FRDXdgF5dSK9DF-58" value="6" style="whiteSpace=wrap;html=1;aspect=fixed;" vertex="1" parent="1">
          <mxGeometry x="240" y="210" width="40" height="40" as="geometry" />
        </mxCell>
        <mxCell id="63pfL0FRDXdgF5dSK9DF-59" value="7" style="whiteSpace=wrap;html=1;aspect=fixed;" vertex="1" parent="1">
          <mxGeometry x="290" y="210" width="40" height="40" as="geometry" />
        </mxCell>
        <mxCell id="63pfL0FRDXdgF5dSK9DF-60" value="8" style="whiteSpace=wrap;html=1;aspect=fixed;" vertex="1" parent="1">
          <mxGeometry x="340" y="210" width="40" height="40" as="geometry" />
        </mxCell>
        <mxCell id="63pfL0FRDXdgF5dSK9DF-61" value="9" style="whiteSpace=wrap;html=1;aspect=fixed;" vertex="1" parent="1">
          <mxGeometry x="390" y="210" width="40" height="40" as="geometry" />
        </mxCell>
        <mxCell id="63pfL0FRDXdgF5dSK9DF-62" value="10" style="whiteSpace=wrap;html=1;aspect=fixed;" vertex="1" parent="1">
          <mxGeometry x="440" y="210" width="40" height="40" as="geometry" />
        </mxCell>
        <mxCell id="63pfL0FRDXdgF5dSK9DF-63" value="11" style="whiteSpace=wrap;html=1;aspect=fixed;" vertex="1" parent="1">
          <mxGeometry x="490" y="210" width="40" height="40" as="geometry" />
        </mxCell>
        <mxCell id="63pfL0FRDXdgF5dSK9DF-64" value="12" style="whiteSpace=wrap;html=1;aspect=fixed;" vertex="1" parent="1">
          <mxGeometry x="540" y="210" width="40" height="40" as="geometry" />
        </mxCell>
        <mxCell id="63pfL0FRDXdgF5dSK9DF-65" value="13" style="whiteSpace=wrap;html=1;aspect=fixed;" vertex="1" parent="1">
          <mxGeometry x="590" y="210" width="40" height="40" as="geometry" />
        </mxCell>
        <mxCell id="63pfL0FRDXdgF5dSK9DF-66" value="14" style="whiteSpace=wrap;html=1;aspect=fixed;" vertex="1" parent="1">
          <mxGeometry x="640" y="210" width="40" height="40" as="geometry" />
        </mxCell>
        <mxCell id="63pfL0FRDXdgF5dSK9DF-67" value="15" style="whiteSpace=wrap;html=1;aspect=fixed;" vertex="1" parent="1">
          <mxGeometry x="690" y="210" width="40" height="40" as="geometry" />
        </mxCell>
        <mxCell id="63pfL0FRDXdgF5dSK9DF-68" value="16" style="whiteSpace=wrap;html=1;aspect=fixed;" vertex="1" parent="1">
          <mxGeometry x="740" y="210" width="40" height="40" as="geometry" />
        </mxCell>
        <mxCell id="63pfL0FRDXdgF5dSK9DF-69" value="17" style="whiteSpace=wrap;html=1;aspect=fixed;" vertex="1" parent="1">
          <mxGeometry x="790" y="210" width="40" height="40" as="geometry" />
        </mxCell>
        <mxCell id="63pfL0FRDXdgF5dSK9DF-70" value="18" style="whiteSpace=wrap;html=1;aspect=fixed;" vertex="1" parent="1">
          <mxGeometry x="840" y="210" width="40" height="40" as="geometry" />
        </mxCell>
        <mxCell id="63pfL0FRDXdgF5dSK9DF-71" value="19" style="whiteSpace=wrap;html=1;aspect=fixed;" vertex="1" parent="1">
          <mxGeometry x="890" y="210" width="40" height="40" as="geometry" />
        </mxCell>
        <mxCell id="63pfL0FRDXdgF5dSK9DF-72" value="20" style="whiteSpace=wrap;html=1;aspect=fixed;" vertex="1" parent="1">
          <mxGeometry x="940" y="210" width="40" height="40" as="geometry" />
        </mxCell>
        <mxCell id="63pfL0FRDXdgF5dSK9DF-73" value="21" style="whiteSpace=wrap;html=1;aspect=fixed;" vertex="1" parent="1">
          <mxGeometry x="990" y="210" width="40" height="40" as="geometry" />
        </mxCell>
        <mxCell id="63pfL0FRDXdgF5dSK9DF-74" value="22" style="whiteSpace=wrap;html=1;aspect=fixed;" vertex="1" parent="1">
          <mxGeometry x="1040" y="210" width="40" height="40" as="geometry" />
        </mxCell>
        <mxCell id="63pfL0FRDXdgF5dSK9DF-76" value="1" style="whiteSpace=wrap;html=1;aspect=fixed;" vertex="1" parent="1">
          <mxGeometry x="-10" y="210" width="40" height="40" as="geometry" />
        </mxCell>
        <mxCell id="63pfL0FRDXdgF5dSK9DF-89" style="edgeStyle=orthogonalEdgeStyle;rounded=0;orthogonalLoop=1;jettySize=auto;html=1;entryX=0.459;entryY=-0.049;entryDx=0;entryDy=0;entryPerimeter=0;" edge="1" parent="1" source="63pfL0FRDXdgF5dSK9DF-6" target="63pfL0FRDXdgF5dSK9DF-59">
          <mxGeometry relative="1" as="geometry" />
        </mxCell>
        <mxCell id="63pfL0FRDXdgF5dSK9DF-107" style="edgeStyle=orthogonalEdgeStyle;rounded=0;orthogonalLoop=1;jettySize=auto;html=1;entryX=0.439;entryY=0.008;entryDx=0;entryDy=0;entryPerimeter=0;" edge="1" parent="1" source="63pfL0FRDXdgF5dSK9DF-28">
          <mxGeometry relative="1" as="geometry">
            <mxPoint x="1107.56" y="210.32000000000005" as="targetPoint" />
          </mxGeometry>
        </mxCell>
        <mxCell id="63pfL0FRDXdgF5dSK9DF-108" value="0" style="whiteSpace=wrap;html=1;aspect=fixed;" vertex="1" parent="1">
          <mxGeometry x="-60" y="210" width="40" height="40" as="geometry" />
        </mxCell>
        <mxCell id="63pfL0FRDXdgF5dSK9DF-112" style="edgeStyle=orthogonalEdgeStyle;rounded=0;orthogonalLoop=1;jettySize=auto;html=1;entryX=0;entryY=0.5;entryDx=0;entryDy=0;" edge="1" parent="1" source="63pfL0FRDXdgF5dSK9DF-109" target="63pfL0FRDXdgF5dSK9DF-108">
          <mxGeometry relative="1" as="geometry" />
        </mxCell>
        <mxCell id="63pfL0FRDXdgF5dSK9DF-109" value="" style="verticalLabelPosition=bottom;shadow=0;dashed=0;align=center;html=1;verticalAlign=top;shape=mxgraph.electrical.logic_gates.logic_gate;operation=xor;negating=1;negSize=0.15;rotation=-180;" vertex="1" parent="1">
          <mxGeometry x="620" width="100" height="60" as="geometry" />
        </mxCell>
        <mxCell id="63pfL0FRDXdgF5dSK9DF-110" style="edgeStyle=orthogonalEdgeStyle;rounded=0;orthogonalLoop=1;jettySize=auto;html=1;entryX=0;entryY=0.25;entryDx=0;entryDy=0;entryPerimeter=0;" edge="1" parent="1" source="63pfL0FRDXdgF5dSK9DF-23" target="63pfL0FRDXdgF5dSK9DF-109">
          <mxGeometry relative="1" as="geometry">
            <Array as="points">
              <mxPoint x="840" y="45" />
            </Array>
          </mxGeometry>
        </mxCell>
        <mxCell id="63pfL0FRDXdgF5dSK9DF-111" style="edgeStyle=orthogonalEdgeStyle;rounded=0;orthogonalLoop=1;jettySize=auto;html=1;entryX=0;entryY=0.75;entryDx=0;entryDy=0;entryPerimeter=0;" edge="1" parent="1" source="63pfL0FRDXdgF5dSK9DF-28" target="63pfL0FRDXdgF5dSK9DF-109">
          <mxGeometry relative="1" as="geometry">
            <Array as="points">
              <mxPoint x="1090" y="15" />
            </Array>
          </mxGeometry>
        </mxCell>
      </root>
    </mxGraphModel>
  </diagram>
</mxfile>
